<?xml version="1.0" encoding="utf-8"?>
<!-- Generator: Adobe Illustrator 14.0.0, SVG Export Plug-In . SVG Version: 6.00 Build 43363)  -->
<!DOCTYPE svg PUBLIC "-//W3C//DTD SVG 1.1//EN" "http://www.w3.org/Graphics/SVG/1.1/DTD/svg11.dtd">
<svg version="1.1" id="Layer_1" xmlns="http://www.w3.org/2000/svg" xmlns:xlink="http://www.w3.org/1999/xlink" x="0px" y="0px"
	 width="512px" height="512px" viewBox="0 0 512 512" enable-background="new 0 0 512 512" xml:space="preserve">
<g>
	<path d="M429.243,218.971c-14.39-28.004-120.734-2.056-237.528,57.957C74.926,336.938-24.224,405.162,6.298,436.291
		c25.912,26.43,120.733,2.057,237.526-57.955C360.614,318.326,443.627,246.977,429.243,218.971z M262.951,347.016
		c-94.52,48.564-169.752,71.219-188.266,54.611c-21.807-19.562,59.499-72.699,154.015-121.262
		c94.521-48.567,178.808-73.018,188.266-54.612C426.42,244.16,357.468,298.451,262.951,347.016z"/>
	<path d="M143.63,223.707c-15.025,22.054,54.93,86.35,156.25,143.607c101.318,57.254,200.761,98.537,210.663,63.734
		c8.408-29.549-54.929-86.346-156.249-143.605C252.975,230.188,158.66,201.651,143.63,223.707z M320.998,287.176
		c81.994,46.336,134.823,90,130.587,110.148c-4.993,23.729-84.354-11.318-166.349-57.654
		c-81.998-46.338-140.464-95.651-130.587-110.146C164.526,215.029,239.002,240.842,320.998,287.176z"/>
	<path d="M236.344,460.525c31.807,6.432,76.495-79.984,99.812-193.023c23.315-113.033,28.983-218.93-15.376-216.316
		c-37.667,2.219-76.498,79.983-99.816,193.021C197.647,357.24,204.53,454.086,236.344,460.525z M234.715,275.08
		c18.87-91.478,46.972-155.085,72.021-157.981c29.504-3.407,22.557,81.816,3.688,173.29c-18.87,91.48-51.114,162.211-72.021,157.98
		C217.499,444.139,215.849,366.557,234.715,275.08z"/>
	<circle cx="271.898" cy="298.178" r="23.321"/>
</g>
</svg>
